{
	"asset":{
		"generator":"Khronos glTF Blender I/O v4.2.70",
		"version":"2.0"
	},
	"extensionsUsed":[
		"KHR_texture_transform"
	],
	"extensionsRequired":[
		"KHR_texture_transform"
	],
	"scene":0,
	"scenes":[
		{
			"name":"Scene",
			"nodes":[
				0
			]
		}
	],
	"nodes":[
		{
			"mesh":0,
			"name":"Cylinder"
		}
	],
	"materials":[
		{
			"doubleSided":true,
			"name":"wood_cabinet_worn_long",
			"normalTexture":{
				"extensions":{
					"KHR_texture_transform":{
						"offset":[
							0,
							-1
						],
						"scale":[
							1,
							2
						]
					}
				},
				"index":0
			},
			"pbrMetallicRoughness":{
				"baseColorTexture":{
					"extensions":{
						"KHR_texture_transform":{
							"offset":[
								0,
								-1
							],
							"scale":[
								1,
								2
							]
						}
					},
					"index":1
				},
				"metallicFactor":0,
				"metallicRoughnessTexture":{
					"extensions":{
						"KHR_texture_transform":{
							"offset":[
								0,
								-1
							],
							"scale":[
								1,
								2
							]
						}
					},
					"index":2
				}
			}
		},
		{
			"doubleSided":true,
			"name":"weathered_planks",
			"normalTexture":{
				"index":3
			},
			"pbrMetallicRoughness":{
				"baseColorTexture":{
					"index":4
				},
				"metallicFactor":0,
				"metallicRoughnessTexture":{
					"index":5
				}
			}
		},
		{
			"doubleSided":true,
			"name":"fabric_pattern_07",
			"normalTexture":{
				"index":6
			},
			"pbrMetallicRoughness":{
				"baseColorTexture":{
					"index":7
				},
				"metallicFactor":0,
				"metallicRoughnessTexture":{
					"index":8
				}
			}
		}
	],
	"meshes":[
		{
			"name":"Cylinder.001",
			"primitives":[
				{
					"attributes":{
						"POSITION":0,
						"NORMAL":1,
						"TEXCOORD_0":2
					},
					"indices":3,
					"material":0
				},
				{
					"attributes":{
						"POSITION":4,
						"NORMAL":5,
						"TEXCOORD_0":6
					},
					"indices":7,
					"material":1
				},
				{
					"attributes":{
						"POSITION":8,
						"NORMAL":9,
						"TEXCOORD_0":10
					},
					"indices":11,
					"material":2
				}
			]
		}
	],
	"textures":[
		{
			"sampler":0,
			"source":0
		},
		{
			"sampler":0,
			"source":1
		},
		{
			"sampler":0,
			"source":2
		},
		{
			"sampler":0,
			"source":3
		},
		{
			"sampler":0,
			"source":4
		},
		{
			"sampler":0,
			"source":5
		},
		{
			"sampler":0,
			"source":6
		},
		{
			"sampler":0,
			"source":7
		},
		{
			"sampler":0,
			"source":8
		}
	],
	"images":[
		{
			"mimeType":"image/png",
			"name":"wood_cabinet_worn_long_nor_gl_16k",
			"uri":"wood_cabinet_worn_long_nor_gl_16k.png"
		},
		{
			"mimeType":"image/jpeg",
			"name":"wood_cabinet_worn_long_diff_4k",
			"uri":"wood_cabinet_worn_long_diff_4k.jpg"
		},
		{
			"mimeType":"image/png",
			"name":"wood_cabinet_worn_long_rough_16k",
			"uri":"wood_cabinet_worn_long_rough_16k.png"
		},
		{
			"mimeType":"image/png",
			"name":"weathered_planks_nor_gl_8k",
			"uri":"weathered_planks_nor_gl_8k.png"
		},
		{
			"mimeType":"image/jpeg",
			"name":"weathered_planks_diff_4k",
			"uri":"weathered_planks_diff_4k.jpg"
		},
		{
			"mimeType":"image/png",
			"name":"weathered_planks_rough_8k",
			"uri":"weathered_planks_rough_8k.png"
		},
		{
			"mimeType":"image/png",
			"name":"fabric_pattern_07_nor_4k",
			"uri":"fabric_pattern_07_nor_4k.png"
		},
		{
			"mimeType":"image/png",
			"name":"fabric_pattern_07_col_1_4k",
			"uri":"fabric_pattern_07_col_1_4k.png"
		},
		{
			"mimeType":"image/png",
			"name":"fabric_pattern_07_rough_4k",
			"uri":"fabric_pattern_07_rough_4k.png"
		}
	],
	"accessors":[
		{
			"bufferView":0,
			"componentType":5126,
			"count":755,
			"max":[
				0.7684468626976013,
				0.6000000238418579,
				0.7882089614868164
			],
			"min":[
				-0.7684468626976013,
				-0.6000000238418579,
				-0.7882089614868164
			],
			"type":"VEC3"
		},
		{
			"bufferView":1,
			"componentType":5126,
			"count":755,
			"type":"VEC3"
		},
		{
			"bufferView":2,
			"componentType":5126,
			"count":755,
			"type":"VEC2"
		},
		{
			"bufferView":3,
			"componentType":5123,
			"count":1548,
			"type":"SCALAR"
		},
		{
			"bufferView":4,
			"componentType":5126,
			"count":112,
			"max":[
				0.7684468626976013,
				0.36181044578552246,
				0.7882089614868164
			],
			"min":[
				-0.7684468626976013,
				-0.34622806310653687,
				-0.7882089614868164
			],
			"type":"VEC3"
		},
		{
			"bufferView":5,
			"componentType":5126,
			"count":112,
			"type":"VEC3"
		},
		{
			"bufferView":6,
			"componentType":5126,
			"count":112,
			"type":"VEC2"
		},
		{
			"bufferView":7,
			"componentType":5123,
			"count":168,
			"type":"SCALAR"
		},
		{
			"bufferView":8,
			"componentType":5126,
			"count":14,
			"max":[
				0.4340484142303467,
				0.5291129946708679,
				0.4541490972042084
			],
			"min":[
				-0.4427626132965088,
				0.5291129946708679,
				-0.4541490972042084
			],
			"type":"VEC3"
		},
		{
			"bufferView":9,
			"componentType":5126,
			"count":14,
			"type":"VEC3"
		},
		{
			"bufferView":10,
			"componentType":5126,
			"count":14,
			"type":"VEC2"
		},
		{
			"bufferView":11,
			"componentType":5123,
			"count":36,
			"type":"SCALAR"
		}
	],
	"bufferViews":[
		{
			"buffer":0,
			"byteLength":9060,
			"byteOffset":0,
			"target":34962
		},
		{
			"buffer":0,
			"byteLength":9060,
			"byteOffset":9060,
			"target":34962
		},
		{
			"buffer":0,
			"byteLength":6040,
			"byteOffset":18120,
			"target":34962
		},
		{
			"buffer":0,
			"byteLength":3096,
			"byteOffset":24160,
			"target":34963
		},
		{
			"buffer":0,
			"byteLength":1344,
			"byteOffset":27256,
			"target":34962
		},
		{
			"buffer":0,
			"byteLength":1344,
			"byteOffset":28600,
			"target":34962
		},
		{
			"buffer":0,
			"byteLength":896,
			"byteOffset":29944,
			"target":34962
		},
		{
			"buffer":0,
			"byteLength":336,
			"byteOffset":30840,
			"target":34963
		},
		{
			"buffer":0,
			"byteLength":168,
			"byteOffset":31176,
			"target":34962
		},
		{
			"buffer":0,
			"byteLength":168,
			"byteOffset":31344,
			"target":34962
		},
		{
			"buffer":0,
			"byteLength":112,
			"byteOffset":31512,
			"target":34962
		},
		{
			"buffer":0,
			"byteLength":72,
			"byteOffset":31624,
			"target":34963
		}
	],
	"samplers":[
		{
			"magFilter":9729,
			"minFilter":9987
		}
	],
	"buffers":[
		{
			"byteLength":31696,
			"uri":"barrel.bin"
		}
	]
}
