{
	"asset":{
		"generator":"Khronos glTF Blender I/O v4.2.70",
		"version":"2.0"
	},
	"extensionsUsed":[
		"KHR_materials_specular"
	],
	"scene":0,
	"scenes":[
		{
			"name":"Scene",
			"nodes":[
				0,
				1,
				2
			]
		}
	],
	"nodes":[
		{
			"mesh":0,
			"name":"WaterBottle",
			"rotation":[
				0,
				1,
				0,
				0
			],
			"scale":[
				117.6828842163086,
				117.6828842163086,
				117.6828842163086
			],
			"translation":[
				-11.345070838928223,
				11.297012329101562,
				0.01695200800895691
			]
		},
		{
			"mesh":1,
			"name":"Salmon_white_shoe",
			"rotation":[
				0,
				-0.5735764503479004,
				0,
				0.8191521763801575
			],
			"scale":[
				1.5337707996368408,
				1.5337707996368408,
				1.5337707996368408
			],
			"translation":[
				12.220636367797852,
				-22.06745719909668,
				0.01695200800895691
			]
		},
		{
			"mesh":2,
			"name":"Grid",
			"translation":[
				-0.03154021501541138,
				-6.010891914367676,
				0.01695200800895691
			]
		}
	],
	"materials":[
		{
			"emissiveFactor":[
				1,
				1,
				1
			],
			"emissiveTexture":{
				"index":0
			},
			"name":"BottleMat",
			"normalTexture":{
				"index":1
			},
			"occlusionTexture":{
				"index":2
			},
			"pbrMetallicRoughness":{
				"baseColorTexture":{
					"index":3
				},
				"metallicRoughnessTexture":{
					"index":2
				}
			}
		},
		{
			"doubleSided":true,
			"extensions":{
				"KHR_materials_specular":{
					"specularFactor":0
				}
			},
			"name":"Salmon_white_shoe_tex0",
			"pbrMetallicRoughness":{
				"baseColorTexture":{
					"index":4
				},
				"metallicFactor":0
			}
		},
		{
			"doubleSided":true,
			"extensions":{
				"KHR_materials_specular":{
					"specularFactor":0
				}
			},
			"name":"Salmon_white_shoe_tex1",
			"pbrMetallicRoughness":{
				"baseColorTexture":{
					"index":5
				},
				"metallicFactor":0
			}
		},
		{
			"doubleSided":true,
			"name":"Material.001",
			"pbrMetallicRoughness":{
				"baseColorFactor":[
					0,
					0.1090719997882843,
					0.8001194596290588,
					1
				],
				"metallicFactor":0,
				"roughnessFactor":0.5
			}
		}
	],
	"meshes":[
		{
			"name":"WaterBottle",
			"primitives":[
				{
					"attributes":{
						"POSITION":0,
						"NORMAL":1,
						"TEXCOORD_0":2
					},
					"indices":3,
					"material":0
				}
			]
		},
		{
			"name":"Salmon_white_shoe",
			"primitives":[
				{
					"attributes":{
						"POSITION":4,
						"NORMAL":5,
						"TEXCOORD_0":6
					},
					"indices":7,
					"material":1
				},
				{
					"attributes":{
						"POSITION":8,
						"NORMAL":9,
						"TEXCOORD_0":10
					},
					"indices":11,
					"material":2
				}
			]
		},
		{
			"name":"Grid",
			"primitives":[
				{
					"attributes":{
						"POSITION":12,
						"NORMAL":13,
						"TEXCOORD_0":14
					},
					"indices":15,
					"material":3
				}
			]
		}
	],
	"textures":[
		{
			"sampler":0,
			"source":0
		},
		{
			"sampler":0,
			"source":1
		},
		{
			"sampler":0,
			"source":2
		},
		{
			"sampler":0,
			"source":3
		},
		{
			"sampler":0,
			"source":4
		},
		{
			"sampler":0,
			"source":5
		}
	],
	"images":[
		{
			"mimeType":"image/png",
			"name":"WaterBottle_emissive",
			"uri":"WaterBottle_emissive.png"
		},
		{
			"mimeType":"image/png",
			"name":"WaterBottle_normal",
			"uri":"WaterBottle_normal.png"
		},
		{
			"mimeType":"image/png",
			"name":"WaterBottle_occlusionRoughnessMetallic",
			"uri":"WaterBottle_occlusionRoughnessMetallic.png"
		},
		{
			"mimeType":"image/png",
			"name":"WaterBottle_baseColor",
			"uri":"WaterBottle_baseColor.png"
		},
		{
			"mimeType":"image/jpeg",
			"name":"Salmon_white_shoe_tex0",
			"uri":"Salmon_white_shoe_tex0.jpg"
		},
		{
			"mimeType":"image/jpeg",
			"name":"Salmon_white_shoe_tex1",
			"uri":"Salmon_white_shoe_tex1.jpg"
		}
	],
	"accessors":[
		{
			"bufferView":0,
			"componentType":5126,
			"count":2549,
			"max":[
				0.054450009018182755,
				0.13022033870220184,
				0.05445002391934395
			],
			"min":[
				-0.054450009018182755,
				-0.13022033870220184,
				-0.05445002391934395
			],
			"type":"VEC3"
		},
		{
			"bufferView":1,
			"componentType":5126,
			"count":2549,
			"type":"VEC3"
		},
		{
			"bufferView":2,
			"componentType":5126,
			"count":2549,
			"type":"VEC2"
		},
		{
			"bufferView":3,
			"componentType":5123,
			"count":13530,
			"type":"SCALAR"
		},
		{
			"bufferView":4,
			"componentType":5126,
			"count":350126,
			"max":[
				11.562010765075684,
				25.65679931640625,
				9.283896446228027
			],
			"min":[
				-16.460264205932617,
				11.494860649108887,
				-33.82743835449219
			],
			"type":"VEC3"
		},
		{
			"bufferView":5,
			"componentType":5126,
			"count":350126,
			"type":"VEC3"
		},
		{
			"bufferView":6,
			"componentType":5126,
			"count":350126,
			"type":"VEC2"
		},
		{
			"bufferView":7,
			"componentType":5125,
			"count":679434,
			"type":"SCALAR"
		},
		{
			"bufferView":8,
			"componentType":5126,
			"count":323904,
			"max":[
				11.562010765075684,
				25.65957260131836,
				9.283896446228027
			],
			"min":[
				-16.474668502807617,
				11.494860649108887,
				-33.791866302490234
			],
			"type":"VEC3"
		},
		{
			"bufferView":9,
			"componentType":5126,
			"count":323904,
			"type":"VEC3"
		},
		{
			"bufferView":10,
			"componentType":5126,
			"count":323904,
			"type":"VEC2"
		},
		{
			"bufferView":11,
			"componentType":5125,
			"count":594273,
			"type":"SCALAR"
		},
		{
			"bufferView":12,
			"componentType":5126,
			"count":142,
			"max":[
				25,
				0,
				25
			],
			"min":[
				-25,
				0,
				-25
			],
			"type":"VEC3"
		},
		{
			"bufferView":13,
			"componentType":5126,
			"count":142,
			"type":"VEC3"
		},
		{
			"bufferView":14,
			"componentType":5126,
			"count":142,
			"type":"VEC2"
		},
		{
			"bufferView":15,
			"componentType":5123,
			"count":600,
			"type":"SCALAR"
		}
	],
	"bufferViews":[
		{
			"buffer":0,
			"byteLength":30588,
			"byteOffset":0,
			"target":34962
		},
		{
			"buffer":0,
			"byteLength":30588,
			"byteOffset":30588,
			"target":34962
		},
		{
			"buffer":0,
			"byteLength":20392,
			"byteOffset":61176,
			"target":34962
		},
		{
			"buffer":0,
			"byteLength":27060,
			"byteOffset":81568,
			"target":34963
		},
		{
			"buffer":0,
			"byteLength":4201512,
			"byteOffset":108628,
			"target":34962
		},
		{
			"buffer":0,
			"byteLength":4201512,
			"byteOffset":4310140,
			"target":34962
		},
		{
			"buffer":0,
			"byteLength":2801008,
			"byteOffset":8511652,
			"target":34962
		},
		{
			"buffer":0,
			"byteLength":2717736,
			"byteOffset":11312660,
			"target":34963
		},
		{
			"buffer":0,
			"byteLength":3886848,
			"byteOffset":14030396,
			"target":34962
		},
		{
			"buffer":0,
			"byteLength":3886848,
			"byteOffset":17917244,
			"target":34962
		},
		{
			"buffer":0,
			"byteLength":2591232,
			"byteOffset":21804092,
			"target":34962
		},
		{
			"buffer":0,
			"byteLength":2377092,
			"byteOffset":24395324,
			"target":34963
		},
		{
			"buffer":0,
			"byteLength":1704,
			"byteOffset":26772416,
			"target":34962
		},
		{
			"buffer":0,
			"byteLength":1704,
			"byteOffset":26774120,
			"target":34962
		},
		{
			"buffer":0,
			"byteLength":1136,
			"byteOffset":26775824,
			"target":34962
		},
		{
			"buffer":0,
			"byteLength":1200,
			"byteOffset":26776960,
			"target":34963
		}
	],
	"samplers":[
		{
			"magFilter":9729,
			"minFilter":9987
		}
	],
	"buffers":[
		{
			"byteLength":26778160,
			"uri":"tuntiesimerkki.bin"
		}
	]
}
